PathFileType	4	(X/Y/Z)	/Users/itak/Documents/Research/Walk-IL/dataset/trc/00065_00006.trc
DataRate	CameraRate	NumFrames	NumMarkers	Units	OrigDataRate	OrigDataStartFrame	OrigNumFrames
100.000000	100.000000	4	53	mm	100.000000	370	741
Frame#	Time	RPSI			LPSI			L3			STRN			T10			C7			CLAV			RBAK			LBAK			LSHO			LUPA			LAEL			LAOL			LWTS			LWPS			LFRA			LIFD			LHPS			LHTS			RSHO			RUPA			RAEL			RAOL			RWTS			RWPS			RFRA			RIFD			RHTS			RHPS			RBHD			LFHD			RFHD			LBHD			LHIP			RHIP			RASI			LASI			LKNE			LTHI			LANK			LTIP			LTOE			LMT1			LMT5			LHEE			RKNE			RTHI			RANK			RTIP			RTOE			RMT1			RMT5			RHEE			
		X1	Y1	Z1	X2	Y2	Z2	X3	Y3	Z3	X4	Y4	Z4	X5	Y5	Z5	X6	Y6	Z6	X7	Y7	Z7	X8	Y8	Z8	X9	Y9	Z9	X10	Y10	Z10	X11	Y11	Z11	X12	Y12	Z12	X13	Y13	Z13	X14	Y14	Z14	X15	Y15	Z15	X16	Y16	Z16	X17	Y17	Z17	X18	Y18	Z18	X19	Y19	Z19	X20	Y20	Z20	X21	Y21	Z21	X22	Y22	Z22	X23	Y23	Z23	X24	Y24	Z24	X25	Y25	Z25	X26	Y26	Z26	X27	Y27	Z27	X28	Y28	Z28	X29	Y29	Z29	X30	Y30	Z30	X31	Y31	Z31	X32	Y32	Z32	X33	Y33	Z33	X34	Y34	Z34	X35	Y35	Z35	X36	Y36	Z36	X37	Y37	Z37	X38	Y38	Z38	X39	Y39	Z39	X40	Y40	Z40	X41	Y41	Z41	X42	Y42	Z42	X43	Y43	Z43	X44	Y44	Z44	X45	Y45	Z45	X46	Y46	Z46	X47	Y47	Z47	X48	Y48	Z48	X49	Y49	Z49	X50	Y50	Z50	X51	Y51	Z51	X52	Y52	Z52	X53	Y53	Z53	

371	3.7	392.4404907226562	1031.61328125	-334.098388671875	359.2286376953125	1011.038818359375	-164.7566986083984	370.7144165039062	1083.306640625	-246.8565673828125	119.1923141479492	1272.649536132812	-333.7181701660156	377.0736694335938	1217.691284179688	-243.2303466796875	311.4087524414062	1480.818481445312	-269.3434753417969	144.6005401611328	1388.150756835938	-325.4411010742188	397.1527099609375	1343.866821289062	-315.1484985351562	302.8959350585938	1447.936767578125	-165.9315795898438	182.5476837158203	1449.557250976562	-130.1699829101562	181.4936828613281	1330.11767578125	-43.08283615112305	162.2683410644531	1119.349853515625	-6.024393558502197	243.3617858886719	1098.916748046875	-71.22299957275391	80.34169006347656	879.7380981445312	-78.10631561279297	122.7190933227539	869.4434204101562	-6.508040904998779	137.2981109619141	1010.739990234375	2.513239622116089	63.85908508300781	694.9146118164062	-96.27347564697266	88.59496307373047	788.8900146484375	-16.8874397277832	54.46642684936523	798.4503173828125	-78.41666412353516	309.4542541503906	1443.39208984375	-452.3578796386719	346.9740600585938	1381.766967773438	-508.2295837402344	421.5925903320312	1133.47119140625	-551.3643188476562	374.3613586425781	1095.462158203125	-471.9096374511719	298.7346801757812	869.5702514648438	-589.9760131835938	384.3385314941406	867.7180786132812	-613.8323364257812	421.3658447265625	1053.353759765625	-572.640380859375	323.591064453125	678.0983276367188	-582.9769287109375	295.4803771972656	762.4134521484375	-603.7525634765625	366.7810668945312	774.875	-631.6825561523438	293.4872741699219	1651.402954101562	-267.3355102539062	99.68956756591797	1692.867919921875	-353.8402404785156	124.1016082763672	1691.628540039062	-229.7593383789062	258.0703125	1644.715942382812	-400.5264282226562	233.5725860595703	948.8345947265625	-105.3775482177734	355.6455688476562	961.240966796875	-427.7557678222656	230.3103179931641	975.3085327148438	-450.0126037597656	148.1277770996094	959.8869018554688	-195.0104064941406	22.28792953491211	517.153564453125	-230.6378326416016	90.66176605224609	647.17041015625	-168.3608245849609	374.6888427734375	171.7462921142578	-188.3730621337891	210.4527893066406	330.0312805175781	-195.5727233886719	220.1790618896484	71.40889739990234	-271.6067810058594	274.9903259277344	103.6240463256836	-302.2734375	289.5016784667969	103.5642166137695	-191.8677825927734	435.7319641113281	216.5296936035156	-242.3034057617188	229.7756805419922	521.3377685546875	-450.8867797851562	259.0413818359375	790.8006591796875	-469.3116149902344	301.0897521972656	33.66472625732422	-447.9942016601562	240.7768707275391	394.9912719726562	-458.2297973632812	82.73080444335938	41.27629852294922	-442.2694091796875	135.6260375976562	47.53034591674805	-394.2620544433594	181.9275512695312	39.35816192626953	-481.9812927246094	338.6878967285156	38.41404724121094	-384.6746826171875	
372	3.71	384.8230590820312	1032.323974609375	-337.6932678222656	353.3302307128906	1011.637451171875	-168.0394134521484	364.2335205078125	1083.974365234375	-250.4767456054688	111.2022476196289	1273.193969726562	-334.1618041992188	370.1380920410156	1218.368408203125	-247.3959503173828	303.9984741210938	1481.440185546875	-272.6940307617188	136.3735046386719	1388.710815429688	-326.3171081542969	389.1517944335938	1344.482421875	-319.6554870605469	297.011962890625	1448.652954101562	-169.2398986816406	177.2233123779297	1450.285034179688	-131.64013671875	177.9660339355469	1331.187255859375	-44.14911651611328	160.3354949951172	1120.5732421875	-5.838459014892578	240.2197875976562	1100.172119140625	-72.58890533447266	78.10880279541016	880.1359252929688	-75.04000091552734	121.8794097900391	870.475341796875	-4.2359938621521	136.0233001708984	1011.880859375	3.753641128540039	62.29520034790039	695.1151123046875	-92.00508880615234	88.06051635742188	789.6471557617188	-13.5582160949707	52.66937255859375	798.7059326171875	-74.43194580078125	299.5030822753906	1443.94384765625	-455.572998046875	336.2383117675781	1382.32568359375	-512.080810546875	408.9051513671875	1133.430297851562	-557.0070190429688	362.6655883789062	1095.591186523438	-476.8688049316406	282.5300903320312	870.9986572265625	-594.2964477539062	367.7556457519531	868.1123046875	-619.4237670898438	407.5828247070312	1053.203247070312	-578.3851928710938	304.7901000976562	679.26123046875	-587.946044921875	277.469970703125	764.0009155273438	-608.2877807617188	348.6138916015625	775.4923095703125	-637.1058349609375	285.7657470703125	1652.220703125	-270.41552734375	90.82022094726562	1693.156005859375	-354.4049987792969	116.8100738525391	1692.161376953125	-230.7069244384766	248.6534576416016	1645.276733398438	-403.111572265625	228.2136383056641	949.92578125	-107.2717208862305	347.3271179199219	961.6434326171875	-430.8367309570312	221.6401519775391	975.0504150390625	-451.9200744628906	141.8178558349609	960.6737670898438	-196.1021270751953	8.716239929199219	522.2738037109375	-229.578857421875	80.18141937255859	650.8533935546875	-167.924560546875	349.7796936035156	164.9596557617188	-195.9476776123047	191.3627166748047	328.6456909179688	-199.1729888916016	188.9125671386719	71.83911895751953	-274.9817199707031	244.4029235839844	101.0809860229492	-307.1604614257812	261.5947265625	100.8383255004883	-197.3134765625	411.3510131835938	206.9260864257812	-251.535888671875	227.6455078125	520.8391723632812	-452.0625610351562	252.8490447998047	790.6617431640625	-471.2052001953125	301.0521240234375	33.69408416748047	-447.9483337402344	239.5248870849609	394.7941589355469	-458.8992004394531	82.70174407958984	41.18933868408203	-442.4514770507812	135.604736328125	47.54386138916016	-394.3235473632812	181.9281768798828	39.28142547607422	-482.0809936523438	338.7224731445312	38.59003448486328	-384.6509399414062	
373	3.72	377.1623229980469	1032.902587890625	-341.2353820800781	347.3408813476562	1012.109191894531	-171.2882995605469	357.635009765625	1084.463989257812	-254.0443267822266	103.3372268676758	1273.5576171875	-334.4950256347656	363.1877746582031	1218.887451171875	-251.4359588623047	296.548095703125	1481.89599609375	-275.9114074707031	128.1453704833984	1389.102661132812	-327.086181640625	381.0987854003906	1344.941162109375	-324.0289001464844	291.067626953125	1449.1875	-172.4323272705078	171.8524169921875	1450.797729492188	-133.0261688232422	174.3660736083984	1332.024169921875	-45.21334457397461	158.2831726074219	1121.586547851562	-5.69737434387207	236.9557342529297	1101.2041015625	-73.93833923339844	75.92521667480469	880.3124389648438	-72.05805206298828	120.9189834594727	871.3162841796875	-2.048729419708252	134.6396789550781	1012.827575683594	4.919159412384033	60.87420272827148	695.1073608398438	-87.83592224121094	87.47272491455078	790.2129516601562	-10.34250736236572	50.9067268371582	798.7423706054688	-70.57752227783203	289.5220947265625	1444.3291015625	-458.6428833007812	325.4610595703125	1382.7177734375	-515.7731323242188	396.1872253417969	1133.208374023438	-562.3870849609375	350.9164733886719	1095.564453125	-481.5816040039062	266.2776184082031	872.3076171875	-598.31103515625	351.1189880371094	868.3449096679688	-624.5716552734375	393.7764892578125	1052.887939453125	-583.8218383789062	285.791015625	680.3526611328125	-592.4027709960938	259.4077758789062	765.4736328125	-612.4100341796875	330.4243469238281	775.9602661132812	-642.0296630859375	278.0368041992188	1652.838989257812	-273.3898315429688	82.00424194335938	1693.2978515625	-354.8431396484375	109.5776824951172	1692.56201171875	-231.5501098632812	239.2675476074219	1645.649047851562	-405.5642700195312	222.8583526611328	950.82666015625	-109.1281585693359	338.9460144042969	961.9577026367188	-433.8694763183594	212.9518585205078	974.673095703125	-453.794677734375	135.4692077636719	961.2936401367188	-197.1618347167969	-4.269893646240234	527.0792236328125	-228.2803344726562	70.19264221191406	654.2135620117188	-167.3259582519531	324.12841796875	157.6310577392578	-203.0807495117188	172.1245269775391	326.810302734375	-202.4297637939453	157.2459564208984	72.140380859375	-277.7247009277344	213.2055358886719	98.40851593017578	-311.4613647460938	233.1548156738281	97.7801513671875	-202.2031860351562	386.1451721191406	196.7231140136719	-260.3335266113281	225.4016876220703	520.3381958007812	-453.2441101074219	246.6419982910156	790.4439086914062	-473.0408020019531	301.0013732910156	33.74293518066406	-447.8915710449219	238.1518096923828	394.5790405273438	-459.5123291015625	82.65205383300781	41.09062576293945	-442.6000671386719	135.5635833740234	47.53704452514648	-394.3622741699219	181.9166564941406	39.23041534423828	-482.1502990722656	338.7623291015625	38.77766036987305	-384.6052551269531	
374	3.73	369.4383544921875	1033.345458984375	-344.704345703125	341.2446594238281	1012.454895019531	-174.4853668212891	350.9038696289062	1084.7705078125	-257.5362243652344	95.54817199707031	1273.744018554688	-334.7415466308594	356.2266540527344	1219.246948242188	-255.3346099853516	289.0538635253906	1482.185668945312	-278.9887084960938	119.9288635253906	1389.32666015625	-327.7530517578125	372.9974365234375	1345.2470703125	-328.2569580078125	285.0531311035156	1449.540283203125	-175.5038757324219	166.4237670898438	1451.095336914062	-134.32861328125	170.6701812744141	1332.624877929688	-46.27607345581055	156.1031188964844	1122.386108398438	-5.604223728179932	233.5532836914062	1102.009399414062	-75.27873229980469	73.76950836181641	880.2661743164062	-69.16387176513672	119.8518218994141	871.9605712890625	0.05854164436459541	133.1346435546875	1013.577819824219	6.004073143005371	59.57322311401367	694.8907470703125	-83.75160980224609	86.83167266845703	790.5886840820312	-7.232403755187988	49.15802764892578	798.5602416992188	-66.84990692138672	279.521728515625	1444.552734375	-461.5591735839844	314.6449890136719	1382.942749023438	-519.3037109375	383.4205322265625	1132.804321289062	-567.4945678710938	339.0881652832031	1095.382446289062	-486.0387878417969	249.9815063476562	873.4854125976562	-602.002685546875	334.4314270019531	868.4227905273438	-629.2839965820312	379.9314270019531	1052.412963867188	-588.9430541992188	266.6887512207031	681.3560791015625	-596.3614501953125	241.3229217529297	766.81884765625	-616.1151733398438	312.2250366210938	776.2840576171875	-646.4747924804688	270.2952880859375	1653.250854492188	-276.2528991699219	73.23382568359375	1693.296752929688	-355.1647644042969	102.3858184814453	1692.818725585938	-232.2906341552734	229.907958984375	1645.833984375	-407.8843383789062	217.4140319824219	951.5344848632812	-110.9768524169922	330.5030822753906	962.192138671875	-436.846435546875	204.2847747802734	974.2147216796875	-455.6564025878906	129.0554504394531	961.7451782226562	-198.2178039550781	-16.6728401184082	531.5120849609375	-226.7766876220703	60.66654205322266	657.2072143554688	-166.5891723632812	297.7632751464844	149.914306640625	-209.7542877197266	152.7480621337891	324.5743713378906	-205.3475494384766	125.2585906982422	72.39749908447266	-279.8225708007812	181.5234527587891	95.68482971191406	-315.1513671875	204.2353210449219	94.51781463623047	-206.5154266357422	360.1271057128906	186.0643920898438	-268.6678771972656	223.0235748291016	519.83154296875	-454.4369812011719	240.3628997802734	790.1569213867188	-474.8164978027344	300.9303283691406	33.81552886962891	-447.8228454589844	236.6733856201172	394.3451843261719	-460.0762329101562	82.58245849609375	40.9752197265625	-442.7167663574219	135.4998168945312	47.50798416137695	-394.3786010742188	181.8933410644531	39.19989395141602	-482.190185546875	338.794189453125	38.96452331542969	-384.5273132324219	
